<?xml version="1.0" standalone="no"?>
<!DOCTYPE svg PUBLIC "-//W3C//DTD SVG 20010904//EN"
 "http://www.w3.org/TR/2001/REC-SVG-20010904/DTD/svg10.dtd">
<svg version="1.0" xmlns="http://www.w3.org/2000/svg"
 width="64.000000pt" height="64.000000pt" viewBox="0 0 64.000000 64.000000"
 preserveAspectRatio="xMidYMid meet">

<g transform="translate(0.000000,64.000000) scale(0.100000,-0.100000)"
fill="#000000" stroke="none">
<path d="M15 567 c-3 -7 -4 -100 -3 -207 l3 -195 205 0 205 0 0 205 0 205
-203 3 c-159 2 -204 0 -207 -11z m390 -197 l0 -185 -185 0 -185 0 -3 175 c-1
96 0 180 3 187 3 11 44 13 187 11 l183 -3 0 -185z"/>
<path d="M102 488 c-16 -16 -16 -210 0 -226 8 -8 55 -12 145 -12 l133 0 0 125
0 125 -133 0 c-90 0 -137 -4 -145 -12z m188 -33 c0 -11 -12 -15 -50 -15 -38 0
-50 4 -50 15 0 11 12 15 50 15 38 0 50 -4 50 -15z m60 0 c0 -8 -7 -15 -15 -15
-8 0 -15 7 -15 15 0 8 7 15 15 15 8 0 15 -7 15 -15z m-130 -50 c0 -8 -7 -15
-15 -15 -8 0 -15 7 -15 15 0 8 7 15 15 15 8 0 15 -7 15 -15z m130 0 c0 -11
-12 -15 -50 -15 -38 0 -50 4 -50 15 0 11 12 15 50 15 38 0 50 -4 50 -15z"/>
<path d="M460 571 c0 -5 12 -11 27 -13 22 -3 30 -13 50 -67 21 -56 23 -77 21
-185 l-3 -121 -47 -3 c-69 -4 -59 -22 12 -22 l60 0 0 148 c0 134 -2 155 -24
208 -23 55 -26 59 -60 62 -20 2 -36 -1 -36 -7z"/>
<path d="M8 74 c-1 -31 0 -58 3 -60 5 -3 417 -6 587 -4 36 0 44 17 10 22 -20
3 -23 10 -26 51 -4 61 -20 61 -24 0 l-3 -48 -260 0 -260 0 -3 48 c-4 65 -19
59 -24 -9z"/>
<path d="M70 75 c0 -12 18 -15 105 -15 87 0 105 3 105 15 0 12 -18 15 -105 15
-87 0 -105 -3 -105 -15z"/>
<path d="M320 75 c0 -8 5 -15 10 -15 6 0 10 7 10 15 0 8 -4 15 -10 15 -5 0
-10 -7 -10 -15z"/>
</g>
</svg>
