<?xml version="1.0" standalone="no"?>
<!DOCTYPE svg PUBLIC "-//W3C//DTD SVG 20010904//EN"
 "http://www.w3.org/TR/2001/REC-SVG-20010904/DTD/svg10.dtd">
<svg version="1.0" xmlns="http://www.w3.org/2000/svg"
 width="64.000000pt" height="64.000000pt" viewBox="0 0 64.000000 64.000000"
 preserveAspectRatio="xMidYMid meet">

<g transform="translate(0.000000,64.000000) scale(0.100000,-0.100000)"
fill="#000000" stroke="none">
<path d="M10 600 c0 -5 9 -10 20 -10 20 0 20 -7 20 -270 0 -173 4 -270 10
-270 6 0 10 18 10 40 0 33 3 40 19 40 14 0 21 -8 23 -27 3 -25 7 -28 38 -28
31 0 35 3 38 28 2 19 9 27 23 27 15 0 19 -7 19 -30 l0 -31 103 3 102 3 3 28
c4 33 42 40 42 7 0 -21 26 -38 38 -25 4 4 1 10 -6 12 -6 3 -12 11 -12 19 0 10
14 14 54 14 85 0 86 2 86 200 0 140 -3 171 -16 184 -13 14 -53 16 -285 16
l-269 0 0 23 c0 25 -28 57 -48 57 -7 0 -12 -4 -12 -10z m610 -270 l0 -180
-275 0 -275 0 0 180 0 180 275 0 275 0 0 -180z m-440 -220 c0 -15 -7 -20 -25
-20 -18 0 -25 5 -25 20 0 15 7 20 25 20 18 0 25 -5 25 -20z m90 0 c0 -11 -7
-20 -15 -20 -8 0 -15 9 -15 20 0 11 7 20 15 20 8 0 15 -9 15 -20z m50 0 c0
-11 -7 -20 -15 -20 -8 0 -15 9 -15 20 0 11 7 20 15 20 8 0 15 -9 15 -20z m50
0 c0 -11 -7 -20 -15 -20 -8 0 -15 9 -15 20 0 11 7 20 15 20 8 0 15 -9 15 -20z
m50 0 c0 -11 -7 -20 -15 -20 -8 0 -15 9 -15 20 0 11 7 20 15 20 8 0 15 -9 15
-20z"/>
<path d="M104 436 c-3 -8 -4 -27 -2 -43 3 -26 7 -28 43 -28 l40 0 0 40 c0 39
-1 40 -38 43 -26 2 -39 -1 -43 -12z m66 -31 c0 -20 -5 -25 -25 -25 -20 0 -25
5 -25 25 0 20 5 25 25 25 20 0 25 -5 25 -25z"/>
<path d="M436 439 c-88 -25 -109 -147 -34 -202 33 -25 98 -26 134 -3 106 70
24 241 -100 205z m83 -18 c11 -7 8 -14 -15 -35 -40 -35 -54 -33 -54 9 0 32 3
35 28 35 15 0 33 -4 41 -9z m-80 -38 c13 -46 8 -54 -29 -41 -40 14 -43 21 -19
52 27 35 36 33 48 -11z m131 -41 c0 -18 -4 -23 -16 -18 -9 3 -27 9 -40 12 -31
8 -30 18 3 44 26 20 28 20 40 4 7 -10 13 -29 13 -42z m-144 -18 c30 -8 30 -15
-2 -45 -25 -24 -26 -24 -40 -5 -20 28 -19 70 2 62 9 -3 27 -9 40 -12z m139
-24 c7 -11 -34 -60 -50 -60 -12 0 -27 66 -18 82 4 8 61 -10 68 -22z m-75 -35
c0 -32 -3 -35 -27 -35 -16 0 -34 4 -42 9 -11 7 -8 14 15 35 40 35 54 33 54 -9z"/>
<path d="M104 286 c-3 -8 -4 -27 -2 -43 2 -23 8 -29 34 -31 37 -4 57 16 52 55
-3 24 -8 28 -41 31 -26 2 -39 -1 -43 -12z m66 -31 c0 -20 -5 -25 -25 -25 -20
0 -25 5 -25 25 0 20 5 25 25 25 20 0 25 -5 25 -25z"/>
</g>
</svg>
