<?xml version="1.0" standalone="no"?>
<!DOCTYPE svg PUBLIC "-//W3C//DTD SVG 20010904//EN"
 "http://www.w3.org/TR/2001/REC-SVG-20010904/DTD/svg10.dtd">
<svg version="1.0" xmlns="http://www.w3.org/2000/svg"
 width="64.000000pt" height="64.000000pt" viewBox="0 0 64.000000 64.000000"
 preserveAspectRatio="xMidYMid meet">

<g transform="translate(0.000000,64.000000) scale(0.100000,-0.100000)"
fill="#000000" stroke="none">
<path d="M160 575 c0 -10 -10 -15 -30 -15 -34 0 -70 -31 -70 -60 0 -11 -7 -20
-15 -20 -8 0 -15 -4 -15 -10 0 -5 7 -10 15 -10 8 0 15 -9 15 -20 0 -11 -7 -20
-15 -20 -8 0 -15 -4 -15 -10 0 -5 7 -10 15 -10 8 0 15 -9 15 -20 0 -11 -7 -20
-15 -20 -8 0 -15 -4 -15 -10 0 -5 7 -10 15 -10 8 0 15 -9 15 -20 0 -11 -7 -20
-15 -20 -8 0 -15 -4 -15 -10 0 -5 7 -10 15 -10 8 0 15 -9 15 -20 0 -11 -7 -20
-15 -20 -8 0 -15 -4 -15 -10 0 -5 7 -10 15 -10 8 0 15 -9 15 -20 0 -11 -7 -20
-15 -20 -8 0 -15 -4 -15 -10 0 -5 7 -10 15 -10 8 0 15 -9 15 -20 0 -29 36 -60
70 -60 20 0 30 -5 30 -15 0 -8 5 -15 10 -15 6 0 10 7 10 15 0 8 9 15 20 15 11
0 20 -7 20 -15 0 -8 5 -15 10 -15 6 0 10 7 10 15 0 8 9 15 20 15 11 0 20 -7
20 -15 0 -8 5 -15 10 -15 6 0 10 7 10 15 0 8 9 15 20 15 11 0 20 -7 20 -15 0
-8 5 -15 10 -15 6 0 10 7 10 15 0 8 9 15 20 15 11 0 20 -7 20 -15 0 -8 5 -15
10 -15 6 0 10 7 10 15 0 8 9 15 20 15 11 0 20 -7 20 -15 0 -8 5 -15 10 -15 6
0 10 7 10 15 0 10 10 15 30 15 34 0 70 31 70 60 0 11 7 20 15 20 8 0 15 5 15
10 0 6 -7 10 -15 10 -8 0 -15 9 -15 20 0 11 7 20 15 20 8 0 15 5 15 10 0 6 -7
10 -15 10 -8 0 -15 9 -15 20 0 11 7 20 15 20 8 0 15 5 15 10 0 6 -7 10 -15 10
-8 0 -15 9 -15 20 0 11 7 20 15 20 8 0 15 5 15 10 0 6 -7 10 -15 10 -8 0 -15
9 -15 20 0 11 7 20 15 20 8 0 15 5 15 10 0 6 -7 10 -15 10 -8 0 -15 9 -15 20
0 11 7 20 15 20 8 0 15 5 15 10 0 6 -7 10 -15 10 -8 0 -15 9 -15 20 0 29 -36
60 -70 60 -20 0 -30 5 -30 15 0 8 -4 15 -10 15 -5 0 -10 -7 -10 -15 0 -8 -9
-15 -20 -15 -11 0 -20 7 -20 15 0 8 -4 15 -10 15 -5 0 -10 -7 -10 -15 0 -8 -9
-15 -20 -15 -11 0 -20 7 -20 15 0 8 -4 15 -10 15 -5 0 -10 -7 -10 -15 0 -8 -9
-15 -20 -15 -11 0 -20 7 -20 15 0 8 -4 15 -10 15 -5 0 -10 -7 -10 -15 0 -8 -9
-15 -20 -15 -11 0 -20 7 -20 15 0 8 -4 15 -10 15 -5 0 -10 -7 -10 -15 0 -8 -9
-15 -20 -15 -11 0 -20 7 -20 15 0 8 -4 15 -10 15 -5 0 -10 -7 -10 -15z m395
-255 l0 -215 -235 0 -235 0 -3 205 c-1 112 0 210 3 217 3 11 54 13 237 11
l233 -3 0 -215z"/>
<path d="M125 487 c-3 -7 -4 -87 -3 -177 l3 -165 195 0 195 0 0 175 0 175
-193 3 c-151 2 -194 0 -197 -11z m375 -167 l0 -160 -180 0 -180 0 0 160 0 160
180 0 180 0 0 -160z"/>
<path d="M190 424 c-11 -12 -10 -18 3 -32 16 -15 18 -15 34 0 13 14 14 20 3
32 -7 9 -16 16 -20 16 -4 0 -13 -7 -20 -16z m30 -14 c0 -5 -4 -10 -10 -10 -5
0 -10 5 -10 10 0 6 5 10 10 10 6 0 10 -4 10 -10z"/>
</g>
</svg>
