<?xml version="1.0" standalone="no"?>
<!DOCTYPE svg PUBLIC "-//W3C//DTD SVG 20010904//EN"
 "http://www.w3.org/TR/2001/REC-SVG-20010904/DTD/svg10.dtd">
<svg version="1.0" xmlns="http://www.w3.org/2000/svg"
 width="100.000000pt" height="100.000000pt" viewBox="0 0 100.000000 100.000000"
 preserveAspectRatio="xMidYMid meet">

<g transform="translate(0.000000,100.000000) scale(0.100000,-0.100000)"
fill="#000000" stroke="none">
<path d="M82 638 c-18 -18 -15 -79 6 -94 16 -13 16 -15 0 -28 -14 -10 -18 -28
-18 -78 0 -36 5 -69 12 -76 9 -9 76 -12 240 -12 l228 0 0 30 c0 17 5 30 10 30
6 0 10 -13 10 -30 l0 -30 168 0 c117 0 172 4 180 12 7 7 12 40 12 76 0 50 -4
68 -17 78 -17 13 -17 15 0 28 20 15 23 76 5 94 -17 17 -819 17 -836 0z m828
-37 c0 -16 -7 -34 -15 -41 -8 -7 -15 -20 -15 -30 0 -10 7 -23 15 -30 10 -8 15
-31 15 -71 l0 -59 -55 0 c-48 0 -55 2 -55 20 0 19 -7 20 -100 20 -62 0 -108 5
-120 12 -16 10 -24 10 -40 0 -14 -8 -70 -12 -180 -12 -153 0 -160 -1 -160 -20
0 -18 -7 -20 -55 -20 l-55 0 0 59 c0 40 5 63 15 71 19 16 19 44 0 60 -8 7 -15
25 -15 41 l0 29 410 0 410 0 0 -29z m-680 -216 c0 -8 -4 -15 -10 -15 -5 0 -10
7 -10 15 0 8 5 15 10 15 6 0 10 -7 10 -15z m30 0 c0 -8 -4 -15 -10 -15 -5 0
-10 7 -10 15 0 8 5 15 10 15 6 0 10 -7 10 -15z m30 0 c0 -8 -4 -15 -10 -15 -5
0 -10 7 -10 15 0 8 5 15 10 15 6 0 10 -7 10 -15z m30 0 c0 -8 -4 -15 -10 -15
-5 0 -10 7 -10 15 0 8 5 15 10 15 6 0 10 -7 10 -15z m30 0 c0 -8 -4 -15 -10
-15 -5 0 -10 7 -10 15 0 8 5 15 10 15 6 0 10 -7 10 -15z m30 0 c0 -8 -4 -15
-10 -15 -5 0 -10 7 -10 15 0 8 5 15 10 15 6 0 10 -7 10 -15z m30 0 c0 -8 -4
-15 -10 -15 -5 0 -10 7 -10 15 0 8 5 15 10 15 6 0 10 -7 10 -15z m30 0 c0 -8
-4 -15 -10 -15 -5 0 -10 7 -10 15 0 8 5 15 10 15 6 0 10 -7 10 -15z m30 0 c0
-8 -4 -15 -10 -15 -5 0 -10 7 -10 15 0 8 5 15 10 15 6 0 10 -7 10 -15z m30 0
c0 -8 -4 -15 -10 -15 -5 0 -10 7 -10 15 0 8 5 15 10 15 6 0 10 -7 10 -15z m30
0 c0 -8 -4 -15 -10 -15 -5 0 -10 7 -10 15 0 8 5 15 10 15 6 0 10 -7 10 -15z
m80 0 c0 -8 -4 -15 -10 -15 -5 0 -10 7 -10 15 0 8 5 15 10 15 6 0 10 -7 10
-15z m30 0 c0 -8 -4 -15 -10 -15 -5 0 -10 7 -10 15 0 8 5 15 10 15 6 0 10 -7
10 -15z m30 0 c0 -8 -4 -15 -10 -15 -5 0 -10 7 -10 15 0 8 5 15 10 15 6 0 10
-7 10 -15z m30 0 c0 -8 -4 -15 -10 -15 -5 0 -10 7 -10 15 0 8 5 15 10 15 6 0
10 -7 10 -15z m30 0 c0 -8 -4 -15 -10 -15 -5 0 -10 7 -10 15 0 8 5 15 10 15 6
0 10 -7 10 -15z m30 0 c0 -8 -4 -15 -10 -15 -5 0 -10 7 -10 15 0 8 5 15 10 15
6 0 10 -7 10 -15z m30 0 c0 -8 -4 -15 -10 -15 -5 0 -10 7 -10 15 0 8 5 15 10
15 6 0 10 -7 10 -15z"/>
<path d="M150 530 l0 -80 50 0 50 0 -2 38 c-1 36 -1 36 -5 5 -4 -31 -7 -33
-44 -33 l-39 0 0 70 0 70 39 0 c29 0 41 -5 44 -17 4 -14 5 -12 6 5 1 20 -3 22
-49 22 l-50 0 0 -80z"/>
<path d="M270 530 l0 -80 28 1 c23 2 24 2 5 6 -21 4 -23 10 -23 74 l0 69 40 0
40 0 0 -69 c0 -46 -4 -71 -12 -74 -8 -3 -6 -6 5 -6 15 -1 17 9 17 79 l0 80
-50 0 -50 0 0 -80z"/>
<path d="M390 530 l0 -80 50 0 50 0 0 80 0 80 -50 0 -50 0 0 -80z m90 0 l0
-70 -40 0 -40 0 0 70 0 70 40 0 40 0 0 -70z"/>
<path d="M510 530 l0 -80 50 0 50 0 0 80 0 80 -50 0 -50 0 0 -80z m90 0 l0
-70 -40 0 -40 0 0 70 0 70 40 0 40 0 0 -70z"/>
<path d="M631 583 c2 -24 2 -25 6 -5 4 18 11 22 44 22 l39 0 0 -69 c0 -64 -2
-70 -22 -74 -20 -4 -19 -4 5 -6 l27 -1 0 80 0 80 -50 0 c-48 0 -50 -1 -49 -27z"/>
<path d="M750 530 l0 -80 50 0 50 0 0 80 0 80 -50 0 -50 0 0 -80z m90 0 l0
-70 -40 0 -40 0 0 70 0 70 40 0 40 0 0 -70z"/>
<path d="M241 544 c0 -11 3 -14 6 -6 3 7 2 16 -1 19 -3 4 -6 -2 -5 -13z"/>
<path d="M631 524 c0 -11 3 -14 6 -6 3 7 2 16 -1 19 -3 4 -6 -2 -5 -13z"/>
<path d="M631 478 c-1 -23 3 -28 22 -27 15 1 17 3 5 6 -9 2 -19 14 -21 26 -4
18 -5 17 -6 -5z"/>
<path d="M114 425 c-4 -9 -2 -21 4 -27 15 -15 44 -1 40 19 -4 23 -36 29 -44 8z
m36 -10 c0 -8 -7 -15 -15 -15 -8 0 -15 7 -15 15 0 8 7 15 15 15 8 0 15 -7 15
-15z"/>
<path d="M844 425 c-4 -9 -2 -21 4 -27 15 -15 44 -1 40 19 -4 23 -36 29 -44 8z
m36 -10 c0 -8 -7 -15 -15 -15 -8 0 -15 7 -15 15 0 8 7 15 15 15 8 0 15 -7 15
-15z"/>
</g>
</svg>
